           Jet Li's Black Mask 1996 DVDRip Xvid fasamoo LKRG

RIPPER                           : fasamoo
Format                           : AVI
Format/Info                      : Audio Video Interleave
File size                        : 700 MiB
Duration                         : 1h 29mn
Overall bit rate                 : 1 093 Kbps
Writing application              : VirtualDubMod 1.5.4.1 (build 2178/release)
Writing library                  : VirtualDubMod build 2178/release
Language                         : English(Dubbed)
Subtitles                        : None
Genre                            : Action | Adventure

Video
ID                               : 0
Format                           : MPEG-4 Visual
Format profile                   : Advanced Simple@L5
Format settings, BVOP            : Yes
Format settings, QPel            : No
Format settings, GMC             : No warppoints
Format settings, Matrix          : Custom
Codec ID                         : XVID
Codec ID/Hint                    : XviD
Duration                         : 1h 29mn
Bit rate                         : 965 Kbps
Width                            : 608 pixels
Height                           : 352 pixels
Display aspect ratio             : 16:9
Frame rate                       : 23.976 fps
Color space                      : YUV
Chroma subsampling               : 4:2:0
Bit depth                        : 8 bits
Scan type                        : Progressive
Bits/(Pixel*Frame)               : 0.188
Stream size                      : 618 MiB (88%)
Writing library                  : XviD 1.2.1 (UTC 2008-12-04)

Audio
ID                               : 1
Format                           : MPEG Audio
Format version                   : Version 1
Format profile                   : Layer 3
Mode                             : Joint stereo
Codec ID                         : 55
Codec ID/Hint                    : MP3
Duration                         : 1h 29mn
Bit rate mode                    : Variable
Bit rate                         : 115 Kbps
Nominal bit rate                 : 128 Kbps
Channel(s)                       : 2 channels
Sampling rate                    : 48.0 KHz
Stream size                      : 73.8 MiB (11%)
Alignment                        : Aligned on interleaves
Interleave, duration             : 24 ms (0.58 video frame)
Interleave, preload duration     : 298 ms
Writing library                  : LAME3.98r
Encoding settings                : -m j -V 4 -q 2 -lowpass 17 --abr 128


                                 PLOT


Micheal, a former test subject of a project to create supersoldiers, is forced to escape with his comrades after the project was cancelled. Months later, he is trying to have a quiet life as a librarian with a tough cop as his best friend. However, a string of vicious gangland murders begins that has all the markings of his former compatriots who seem to have turned to violent crime. Realizing that the police are helpless to fight these soldiers, Micheal decides to take them on himself. Donning a mask to protect his identity, Micheal must fight these powerful villians as the mysterious superhero known only as Black Mask.
  







                                 IMBD
                     
                    http://www.imdb.com/title/tt0115693/
 
http://leetleech.org/images/47522895605669120967.png 
http://leetleech.org/images/32393381286404709614.png 
http://leetleech.org/images/24834327430809192005.png 
http://leetleech.org/images/24085917825973443186.png 
http://leetleech.org/images/92769320517646280351.png 
http://leetleech.org/images/04647071632717279909.png 
http://leetleech.org/images/36435395448595788596.png